<svg id="Layer_1" data-name="Layer 1" xmlns="http://www.w3.org/2000/svg" viewBox="0 0 566.93 566.93"><defs><style>.cls-1,.cls-2{fill:none;stroke:#fff;stroke-miterlimit:10;}.cls-1{stroke-width:3px;}.cls-2{stroke-width:9px;}.cls-3{fill:#464655;}.cls-4{fill:#ffe15a;}.cls-5{fill:#ff4b55;}.cls-6{fill:#4173cd;}.cls-7{font-size:184.84px;}.cls-7,.cls-8,.cls-9{fill:#aaa;font-family:Algerian;}.cls-8{font-size:189.79px;}.cls-9{font-size:262.75px;}</style></defs><path class="cls-1" d="M61.43,26.71H505.49V366.1c-5.29,78.13-80,130-221.29,174.12C172.37,514.7,61.43,441.17,61.43,365.59Z"/><path class="cls-2" d="M75.28,42.72H491.65V361c-5,73.25-75.06,121.89-207.5,163.26C179.29,500.28,75.28,431.33,75.28,360.47Z"/><path class="cls-3" d="M471,48.56H304a14.72,14.72,0,0,0-14.72,14.72v28.2H485.76V63.28A14.72,14.72,0,0,0,471,48.56Z"/><path class="cls-4" d="M289.25,162.59A14.72,14.72,0,0,0,304,177.31H471a14.72,14.72,0,0,0,14.72-14.72v-28.2H289.25Z"/><rect class="cls-5" x="289.25" y="91.48" width="196.51" height="42.91"/><path class="cls-4" d="M81.69,161.94a14.75,14.75,0,0,0,14.74,14.75H263.86a14.75,14.75,0,0,0,14.75-14.75V112.18H81.69Z"/><path class="cls-6" d="M263.86,47.67H96.43A14.74,14.74,0,0,0,81.69,62.42v49.76H278.61V62.42A14.75,14.75,0,0,0,263.86,47.67Z"/><text class="cls-7" transform="translate(81.69 390.87)">N</text><text class="cls-8" transform="translate(370.46 390.87)">N</text><text class="cls-9" transform="translate(203.37 390.87)">B</text></svg>